<svg viewBox="0 0 120 120" xml:space="preserve" xmlns="http://www.w3.org/2000/svg" enable-background="new 0 0 120 120"><path d="M50.7 102.3H21.3c-2.1 0-3.9-1.7-3.9-3.9V69c0-2.1 1.7-3.9 3.9-3.9h29.5c2.1 0 3.9 1.7 3.9 3.9v29.5c-.1 2.1-1.8 3.8-4 3.8z" fill="#43a047" class="fill-5edb7c"></path><path d="m88.4 102.8-28-9c-2-.7-3.1-2.8-2.5-4.9l9-28c.7-2 2.8-3.1 4.9-2.5l28 9c2 .7 3.1 2.8 2.5 4.9l-9 28c-.7 2-2.8 3.1-4.9 2.5z" fill="#ff3d00" class="fill-ffd156"></path><path d="m71.2 52.4-27.9 9.5c-2 .7-4.2-.4-4.9-2.4l-9.5-27.9c-.7-2 .4-4.2 2.4-4.9l27.9-9.5c2-.7 4.2.4 4.9 2.4l9.5 27.9c.7 2.1-.4 4.2-2.4 4.9z" fill="#ffc107" class="fill-2b78ff"></path><path d="m59.5 47.7 6.8-2.3-15.2-16.7-6.4 2.3-1.9 22.4 6.7-2.3.1-3.8 7.4-2.5 2.5 2.9zm-9.7-5.8.2-5.6 3.6 4.3-3.8 1.3zM45.2 85.3c-.6-.8-1.5-1.5-2.7-2-.1 0-.1 0-.2-.1.8-.4 1.5-1 2-1.7.6-.8.9-1.7.9-2.8 0-1.6-.7-2.9-2-3.9-1.4-1-3.5-1.5-6.3-1.5h-11V94h11.6c2.8 0 5-.5 6.5-1.5s2.2-2.4 2.2-4.2c0-1.1-.4-2.2-1-3zm-12.5-7h3.2c.8 0 1.4.1 1.7.4.4.3.5.6.5 1.1 0 .5-.2.9-.5 1.1-.4.3-.9.4-1.7.4h-3.2v-3zm5.9 10.5c-.4.3-1 .4-1.7.4h-4.2V86h4.2c.8 0 1.3.1 1.7.4.4.3.6.7.6 1.2-.1.5-.2.9-.6 1.2zM77.9 91.2c-1.6-.5-2.9-1.2-4.1-2.1-1.2-.9-2.1-2-2.8-3.2s-1.1-2.6-1.2-4c-.1-1.4 0-2.9.5-4.4.5-1.5 1.2-2.8 2.1-3.9.9-1.1 2.1-1.9 3.3-2.5 1.3-.6 2.7-.9 4.2-1 1.5-.1 3 .2 4.6.7 1.9.6 3.5 1.5 4.8 2.7s2.2 2.5 2.7 4.1L86.6 80c-.3-.9-.8-1.7-1.4-2.3-.6-.6-1.3-1.1-2.2-1.4-.7-.2-1.4-.3-2-.3-.6 0-1.2.2-1.8.5-.5.3-1 .7-1.4 1.3-.4.5-.7 1.2-1 1.9-.2.7-.3 1.5-.3 2.1 0 .7.2 1.3.4 1.9.3.6.6 1 1.1 1.4.5.4 1.1.7 1.8.9.9.3 1.7.3 2.6.2.8-.2 1.7-.5 2.5-1.1l3 5.1c-1.4.9-2.9 1.5-4.6 1.7-1.7.1-3.5-.1-5.4-.7z" fill="#ffffff" class="fill-ffffff"></path></svg>