<?xml version="1.0" standalone="no"?>
<!DOCTYPE svg PUBLIC "-//W3C//DTD SVG 20010904//EN"
 "http://www.w3.org/TR/2001/REC-SVG-20010904/DTD/svg10.dtd">
<svg version="1.0" xmlns="http://www.w3.org/2000/svg"
 width="512.000000pt" height="512.000000pt" viewBox="0 0 512.000000 512.000000"
 preserveAspectRatio="xMidYMid meet">

<g transform="translate(0.000000,512.000000) scale(0.100000,-0.100000)"
fill="#000000" stroke="none">
<path d="M1810 4951 c-109 -36 -186 -119 -205 -222 l-7 -36 -36 13 c-94 33
-201 6 -278 -70 -83 -83 -84 -92 -84 -533 l0 -374 25 -24 c32 -33 78 -33 110
0 l25 24 0 368 c0 347 1 370 20 400 21 35 66 63 102 63 13 0 37 -9 55 -20 64
-39 63 -25 63 -605 l0 -526 25 -24 c30 -31 73 -32 109 -4 l26 20 0 645 c0 711
-1 695 62 734 42 25 74 25 115 0 65 -39 63 -12 63 -728 l0 -649 23 -21 c32
-30 87 -29 115 1 22 23 22 24 22 514 l0 490 23 34 c14 21 38 39 63 48 37 13
44 12 80 -5 75 -37 74 -26 74 -576 l0 -487 26 -20 c36 -28 79 -27 109 4 l25
24 0 326 c0 344 1 356 48 398 29 27 83 32 121 13 45 -24 71 -71 71 -129 0 -38
5 -53 25 -72 33 -33 78 -33 112 1 24 24 25 30 21 97 -5 78 -31 141 -77 190
-63 69 -194 104 -277 75 l-42 -15 -4 71 c-5 80 -37 153 -85 197 -70 66 -188
95 -269 67 l-42 -15 -4 71 c-10 156 -114 264 -263 272 -33 2 -71 0 -85 -5z"/>
<path d="M3330 3991 c-107 -33 -185 -118 -204 -222 l-6 -36 -38 13 c-119 43
-270 -21 -335 -141 -22 -39 -22 -50 -27 -593 l-5 -552 -62 103 c-75 125 -127
181 -200 214 -130 60 -289 -7 -352 -147 -40 -88 -34 -116 124 -629 80 -259
145 -473 145 -476 0 -3 -47 -5 -105 -5 -82 0 -105 3 -105 14 0 7 -9 25 -21 40
l-20 26 -380 0 -379 0 0 211 c0 126 -4 218 -10 230 -6 10 -32 30 -59 43 -70
36 -153 116 -188 183 -47 88 -386 1199 -379 1239 10 53 81 101 130 88 44 -11
91 -75 252 -342 107 -179 168 -271 185 -279 13 -6 58 -16 99 -22 197 -29 344
-176 367 -368 11 -94 74 -132 137 -82 22 17 26 28 26 69 0 255 -209 490 -482
542 -62 11 -65 14 -95 62 -296 490 -317 519 -408 562 -171 81 -386 -69 -373
-260 5 -74 344 -1179 390 -1274 37 -74 128 -177 198 -222 l50 -32 0 -310 c0
-207 4 -324 12 -349 16 -55 73 -118 132 -145 l51 -24 438 0 438 0 24 25 c14
13 25 31 25 40 0 12 15 15 90 15 50 0 90 -4 90 -8 0 -18 111 -130 164 -167
l56 -38 0 -310 c0 -206 4 -323 12 -348 16 -55 73 -118 132 -145 l51 -24 559 0
c395 0 570 3 597 12 55 16 118 73 145 132 21 44 24 66 24 169 0 112 -1 119
-25 142 l-24 25 -656 0 -655 0 0 211 c0 126 -4 218 -10 230 -6 10 -34 31 -62
45 -70 36 -149 113 -186 182 -32 61 -382 1181 -382 1224 0 54 77 115 131 103
48 -11 82 -55 229 -300 78 -129 150 -239 160 -245 29 -16 65 -12 91 9 l24 19
5 706 5 706 33 32 c28 28 39 33 82 33 43 0 54 -5 82 -33 l33 -32 5 -506 5
-506 24 -19 c30 -24 72 -24 102 0 l24 19 5 626 5 626 33 32 c28 28 39 33 82
33 43 0 54 -5 82 -33 l33 -32 5 -626 5 -626 24 -19 c30 -24 72 -24 102 0 l24
19 5 466 5 466 33 32 c28 28 39 33 82 33 43 0 54 -5 82 -33 l33 -32 5 -466 5
-466 24 -19 c32 -26 77 -24 106 6 l25 24 0 288 c0 268 1 290 20 320 21 35 66
63 102 63 34 0 85 -35 103 -70 14 -28 16 -113 13 -813 -4 -769 -4 -783 -25
-860 -31 -110 -90 -229 -156 -317 l-57 -75 0 -108 c0 -101 2 -109 25 -132 32
-33 78 -33 110 0 23 22 25 32 25 107 1 83 1 83 46 143 63 83 129 222 162 341
l27 99 0 820 0 820 -24 45 c-13 25 -35 58 -50 73 -63 69 -194 104 -277 75
l-42 -15 -4 71 c-6 88 -40 159 -100 210 -69 59 -178 81 -259 52 l-37 -13 -4
71 c-6 88 -40 159 -100 210 -64 55 -172 80 -248 57z"/>
<path d="M3115 2065 c-52 -19 -130 -100 -144 -151 -14 -51 -14 -258 0 -309 15
-54 100 -139 154 -154 24 -6 134 -11 273 -11 l233 0 24 25 c29 28 33 80 11
111 -13 18 -32 19 -255 24 -301 6 -286 -2 -286 160 0 101 2 111 23 132 l23 23
389 0 389 0 23 -23 c21 -21 23 -31 23 -131 0 -126 -10 -145 -77 -156 -52 -9
-78 -36 -78 -80 0 -102 136 -115 238 -22 71 66 82 99 82 257 0 109 -4 143 -19
175 -24 52 -99 121 -147 134 -63 18 -828 14 -879 -4z"/>
</g>
</svg>
