<svg viewBox="0 0 48 48" xml:space="preserve" xmlns="http://www.w3.org/2000/svg" enable-background="new 0 0 48 48"><path d="M24 36.434c-6.867 0-12.434-5.567-12.434-12.434 0-6.867 5.567-12.434 12.434-12.434 6.867 0 12.434 5.567 12.434 12.434 0 6.867-5.567 12.434-12.434 12.434z" fill="#ffffff" class="fill-ffffff"></path><path d="M24 36.434c-6.264 0-11.342-5.141-11.342-11.483 0-6.342 5.078-11.484 11.342-11.484s11.342 5.142 11.342 11.484S30.264 36.434 24 36.434z" fill="#ffcebd" class="fill-b9d4f8"></path><path d="M24 33.914c-5.475 0-9.914-4.439-9.914-9.914s4.439-9.914 9.914-9.914 9.914 4.439 9.914 9.914-4.439 9.914-9.914 9.914z" fill="#f69272" class="fill-659bdb"></path><path d="M24 36.434h0c-6.867 0-12.434-5.567-12.434-12.434v0c0-6.867 5.567-12.434 12.434-12.434h0c6.867 0 12.434 5.567 12.434 12.434v0c0 6.867-5.567 12.434-12.434 12.434z" fill="none" stroke="#0d254f" stroke-width=".7" stroke-linecap="round" stroke-linejoin="round" stroke-miterlimit="10" class="stroke-1b4a9a"></path><path d="M24 20.147v7.706M20.147 24h7.706" fill="none" stroke="#ffffff" stroke-width=".7" stroke-linecap="round" stroke-linejoin="round" stroke-miterlimit="10" class="stroke-ffffff"></path></svg>