<?xml version="1.0" standalone="no"?>
<!DOCTYPE svg PUBLIC "-//W3C//DTD SVG 20010904//EN"
 "http://www.w3.org/TR/2001/REC-SVG-20010904/DTD/svg10.dtd">
<svg version="1.0" xmlns="http://www.w3.org/2000/svg"
 width="512.000000pt" height="512.000000pt" viewBox="0 0 512.000000 512.000000"
 preserveAspectRatio="xMidYMid meet">

<g transform="translate(0.000000,512.000000) scale(0.100000,-0.100000)"
fill="#000000" stroke="none">
<path d="M2409 5092 c-39 -20 -62 -41 -84 -77 l-30 -48 -3 -299 c-2 -195 1
-312 8 -339 14 -51 80 -124 126 -139 l34 -12 0 -72 0 -73 -41 -18 c-49 -23
-106 -86 -119 -134 -5 -20 -10 -165 -10 -326 0 -284 1 -291 24 -341 24 -52 68
-94 119 -113 27 -10 27 -12 27 -95 l0 -85 -226 -3 c-124 -2 -228 0 -230 3 -1
3 -6 35 -10 70 -6 64 -6 64 25 82 43 25 78 74 92 130 12 42 9 76 -25 324 -49
357 -59 382 -172 434 l-62 28 -7 66 -7 66 48 42 c52 46 83 104 84 157 0 62
-70 554 -86 597 -21 58 -91 119 -152 131 -155 32 -300 -59 -310 -195 -5 -76
64 -565 87 -618 23 -52 81 -102 135 -117 l44 -12 9 -70 c8 -58 8 -73 -4 -79
-75 -44 -123 -121 -123 -197 0 -98 70 -562 92 -608 23 -49 82 -97 138 -112
l37 -10 13 -96 13 -95 -28 -55 c-16 -31 -30 -76 -32 -102 -3 -27 13 -165 36
-319 23 -149 41 -277 41 -283 0 -6 -30 6 -67 27 -51 28 -83 39 -128 43 l-60 5
-90 260 c-50 143 -104 284 -120 312 -34 63 -124 152 -185 183 -56 28 -171 68
-230 80 -65 12 -130 -4 -179 -47 -75 -63 -101 -145 -76 -231 19 -62 296 -795
321 -848 26 -55 104 -127 167 -155 47 -20 57 -28 57 -48 0 -44 38 -105 88
-142 26 -20 184 -134 350 -254 247 -177 306 -224 322 -256 11 -21 36 -54 55
-73 l34 -35 -24 -53 c-14 -32 -45 -162 -78 -329 -46 -230 -54 -284 -46 -322
16 -86 58 -140 139 -176 41 -19 65 -21 250 -20 221 0 230 2 250 53 14 38 13
44 -15 71 -24 25 -26 25 -205 25 -135 0 -189 4 -215 14 -64 27 -64 36 -5 332
57 286 68 315 130 346 32 16 75 18 443 18 439 0 435 0 485 -53 20 -21 33 -71
80 -302 75 -374 88 -355 -231 -355 -123 0 -216 -4 -227 -10 -32 -17 -43 -47
-30 -84 18 -55 32 -58 291 -54 219 3 237 4 275 25 77 41 124 118 124 203 0 26
-25 171 -55 321 -42 206 -62 284 -81 317 l-26 44 32 33 c23 24 79 144 217 471
217 511 214 497 150 625 l-37 76 36 114 c40 128 41 168 4 241 l-22 45 22 99
c40 181 35 171 78 178 52 8 123 57 149 103 26 47 143 549 143 616 0 67 -38
137 -100 180 -20 14 -20 16 -4 84 l16 71 40 5 c51 7 111 47 143 95 29 44 146
536 147 617 1 128 -93 213 -247 222 -60 4 -77 1 -115 -19 -82 -44 -96 -75
-166 -380 -35 -150 -64 -293 -64 -317 0 -57 32 -123 77 -160 33 -27 35 -33 29
-68 -14 -88 -26 -113 -52 -113 -49 0 -131 -57 -159 -110 -21 -40 -135 -552
-135 -605 0 -61 30 -126 77 -164 l35 -29 -23 -106 c-13 -58 -26 -105 -29 -103
-96 50 -254 122 -315 143 -44 15 -83 30 -86 33 -5 4 8 136 21 208 0 1 19 8 43
15 57 17 120 81 135 138 16 58 72 512 72 576 0 27 -9 67 -19 89 -17 38 -74 98
-101 107 -10 3 -11 23 -6 79 l7 75 43 11 c48 13 112 70 132 119 7 18 30 162
50 321 35 278 36 290 20 339 -20 64 -85 128 -147 144 -24 7 -75 10 -115 8 -86
-4 -139 -34 -178 -101 -22 -38 -30 -78 -62 -337 -43 -345 -42 -355 35 -431 25
-25 52 -48 60 -50 11 -4 12 -20 6 -77 l-7 -72 -38 -10 c-65 -17 -120 -69 -144
-135 -21 -54 -79 -536 -74 -607 5 -68 43 -129 100 -161 34 -19 38 -25 34 -52
-3 -16 -8 -58 -12 -93 -6 -59 -8 -63 -28 -58 -49 14 -287 55 -353 62 l-73 7 0
97 c0 96 1 98 25 104 35 9 92 62 118 110 21 40 22 51 22 346 0 298 -1 306 -23
352 -23 47 -70 90 -116 108 -25 9 -26 13 -26 82 l0 73 50 27 c27 16 61 45 75
66 40 60 47 130 43 421 -3 252 -4 268 -25 308 -27 50 -86 100 -133 113 -70 19
-153 12 -211 -18z m174 -133 c12 -7 25 -17 29 -23 4 -6 8 -137 8 -290 0 -323
2 -316 -83 -316 -90 0 -87 -9 -87 314 0 155 4 286 8 293 18 29 88 41 125 22z
m-859 -72 c15 -11 26 -63 58 -291 45 -321 45 -318 -38 -330 -51 -7 -88 9 -98
41 -3 10 -21 134 -41 277 -33 235 -34 260 -21 281 22 34 107 46 140 22z m1701
-29 c14 -6 28 -23 32 -37 4 -14 -8 -145 -26 -291 -37 -304 -38 -305 -114 -297
-60 5 -87 29 -87 76 0 20 14 142 30 271 16 129 30 238 30 243 0 4 9 16 20 27
23 23 75 26 115 8z m777 -239 c35 -19 32 -57 -28 -318 -65 -287 -76 -309 -137
-295 -102 22 -104 31 -61 220 19 82 46 200 60 263 32 136 46 156 107 146 23
-4 50 -11 59 -16z m-1600 -756 c17 -15 18 -38 18 -300 0 -270 -1 -284 -20
-303 -25 -25 -95 -27 -128 -4 -22 15 -22 17 -22 304 0 287 0 289 22 304 30 21
106 21 130 -1z m-731 -52 c20 -16 26 -43 60 -287 21 -148 38 -273 39 -277 0
-4 -11 -19 -25 -32 -18 -19 -35 -25 -70 -25 -75 0 -76 1 -119 309 l-38 273 22
23 c12 13 37 26 54 28 17 2 36 5 42 5 7 1 22 -6 35 -17z m1439 -41 c11 -11 20
-28 20 -37 0 -10 -14 -135 -32 -278 -29 -237 -34 -262 -56 -284 -19 -19 -29
-22 -60 -16 -101 17 -99 7 -59 327 38 306 39 308 119 308 35 0 54 -6 68 -20z
m651 -211 c10 -5 21 -20 25 -33 7 -30 -111 -546 -130 -565 -17 -16 -69 -17
-110 -2 -53 21 -52 35 13 321 68 298 73 307 144 296 22 -4 48 -11 58 -17z
m-2899 -749 c111 -35 169 -74 210 -140 15 -25 73 -176 129 -337 l101 -291 -61
-84 c-33 -46 -69 -94 -80 -107 l-18 -24 -46 22 c-25 12 -57 37 -71 55 -25 33
-336 840 -336 873 0 22 39 63 60 63 9 0 59 -14 112 -30z m1423 -50 c445 -31
822 -137 1083 -305 85 -55 88 -68 45 -196 -42 -127 -40 -182 6 -264 17 -30 31
-66 31 -81 0 -37 -347 -856 -371 -876 -16 -13 -39 -18 -89 -18 l-68 0 -4 136
c-3 135 -3 136 -31 160 -34 29 -66 31 -101 3 -26 -20 -26 -21 -26 -160 l0
-139 -100 0 -100 0 2 413 3 412 83 3 c53 2 89 -1 98 -9 11 -9 14 -41 14 -136
0 -118 1 -125 25 -148 31 -32 66 -32 102 -1 l28 24 0 144 c0 143 0 145 -30
193 -20 32 -45 56 -75 72 -44 23 -50 24 -262 21 l-216 -3 -43 -30 c-23 -16
-53 -50 -66 -74 l-23 -44 0 -419 0 -418 -79 0 c-69 0 -81 3 -104 24 -14 13
-28 39 -32 57 -3 19 -57 378 -120 799 -124 834 -122 804 -63 842 41 27 237 34
483 18z m-686 -821 c58 -34 107 -63 108 -64 4 -2 93 -609 90 -611 -7 -6 -557
400 -557 411 0 24 221 325 238 325 9 0 63 -28 121 -61z"/>
</g>
</svg>
